HIERARCHY
ROOT Hips
{
  OFFSET 56.0804 96.2352 16.7261
  CHANNELS 6 Xposition Yposition Zposition Zrotation Xrotation Yrotation
  JOINT spine
  {
    OFFSET 0 8.13249 0.467659
    CHANNELS 3 Zrotation Xrotation Yrotation
    JOINT spine1
    {
      OFFSET 0 10.3498 0
      CHANNELS 3 Zrotation Xrotation Yrotation
      JOINT spine2
      {
        OFFSET 0 9.91699 0
        CHANNELS 3 Zrotation Xrotation Yrotation
        JOINT Neck
        {
          OFFSET 0 25.461 1.2139
          CHANNELS 3 Zrotation Xrotation Yrotation
          JOINT Head
          {
            OFFSET 0 7.69245 0
            CHANNELS 3 Zrotation Xrotation Yrotation
            End Site
            {
              OFFSET 0 18.62 -6.14063
            }
          }
        }
        JOINT RightShoulder
        {
          OFFSET -4.17575 10.7096 -0.581445
          CHANNELS 3 Zrotation Xrotation Yrotation
          JOINT RightArm
          {
            OFFSET 0 14.0466 0
            CHANNELS 3 Zrotation Xrotation Yrotation
            JOINT RightArmRoll
            {
              OFFSET 0 7.09099 0
              CHANNELS 3 Zrotation Xrotation Yrotation
              JOINT RightForeArm
              {
                OFFSET 0 20.6535 0
                CHANNELS 3 Zrotation Xrotation Yrotation
                JOINT RightForeArmRoll
                {
                  OFFSET 0 7.95719 0
                  CHANNELS 3 Zrotation Xrotation Yrotation
                  JOINT RightHand
                  {
                    OFFSET 0 15.9683 0
                    CHANNELS 3 Zrotation Xrotation Yrotation
                    End Site
                    {
                      OFFSET 0 0 0
                    }
                  }
                }
              }
            }
          }
        }
        JOINT LeftShoulder
        {
          OFFSET 4.17575 10.7096 -0.581445
          CHANNELS 3 Zrotation Xrotation Yrotation
          JOINT LeftArm
          {
            OFFSET 0 14.0466 0
            CHANNELS 3 Zrotation Xrotation Yrotation
            JOINT LeftArmRoll
            {
              OFFSET 0 7.09098 0
              CHANNELS 3 Zrotation Xrotation Yrotation
              JOINT LeftForeArm
              {
                OFFSET 0 20.6535 0
                CHANNELS 3 Zrotation Xrotation Yrotation
                JOINT LeftForeArmRoll
                {
                  OFFSET 0 7.95718 0
                  CHANNELS 3 Zrotation Xrotation Yrotation
                  JOINT LeftHand
                  {
                    OFFSET 0 15.9683 0
                    CHANNELS 3 Zrotation Xrotation Yrotation
                    End Site
                    {
                      OFFSET 0 0 0
                    }
                  }
                }
              }
            }
          }
        }
      }
    }
  }
  JOINT RightUpLeg
  {
    OFFSET -7.20834 -1.32182 -1.10884
    CHANNELS 3 Zrotation Xrotation Yrotation
    JOINT RightUpLegRoll
    {
      OFFSET 0 18.7238 0
      CHANNELS 3 Zrotation Xrotation Yrotation
      JOINT RightLeg
      {
        OFFSET 0 -23.1866 0
        CHANNELS 3 Zrotation Xrotation Yrotation
        JOINT RightLegRoll
        {
          OFFSET 0 23.2624 0
          CHANNELS 3 Zrotation Xrotation Yrotation
          JOINT RightFoot
          {
            OFFSET 0 19.3621 0
            CHANNELS 3 Zrotation Xrotation Yrotation
            JOINT RightToeBase
            {
              OFFSET 0 16.1857 0
              CHANNELS 3 Zrotation Xrotation Yrotation
              End Site
              {
                OFFSET 0.00686052 7.83862 -0.903522
              }
            }
          }
        }
      }
    }
  }
  JOINT LeftUpLeg
  {
    OFFSET 7.20834 -1.32182 -1.10884
    CHANNELS 3 Zrotation Xrotation Yrotation
    JOINT LeftUpLegRoll
    {
      OFFSET 0 18.7239 0
      CHANNELS 3 Zrotation Xrotation Yrotation
      JOINT LeftLeg
      {
        OFFSET 0 23.1865 0
        CHANNELS 3 Zrotation Xrotation Yrotation
        JOINT LeftLegRoll
        {
          OFFSET 0 23.4775 0
          CHANNELS 3 Zrotation Xrotation Yrotation
          JOINT LeftFoot
          {
            OFFSET 0 19.147 0
            CHANNELS 3 Zrotation Xrotation Yrotation
            JOINT LeftToeBase
            {
              OFFSET 0 16.1857 0
              CHANNELS 3 Zrotation Xrotation Yrotation
              End Site
              {
                OFFSET -0.0307459 7.83863 -0.903522
              }
            }
          }
        }
      }
    }
  }
}
MOTION
Frames: 12
Frame Time: 0.00208333
52.7216 96.0747 7.15015 -0.405164 -2.68763 0.838155 0.216943 -0.363048 0.169394 0.433963 3.27725 0.295968 0.430978 4.92228 0.288963 0.827396 13.1071 -4.6231 -1.23183 2.82883 -4.54499 58.7071 -10.9536 -6.82305 113.74 20.224 12.7472 -4.13833e-008 1.05047e-007 -3.38475e-006 9.73358 10.3972 -1.84045 -5.49491e-006 1.9926e-006 -3.00113 8.02899 -4.95145 0.697667 -56.5911 -7.5815 4.62934 -113.623 21.6045 -2.35183 -2.14211e-006 -1.98145e-006 5.51095e-006 -9.25336 6.90753 1.41719 2.32597e-006 6.81768e-006 3 -8.02904 -4.95145 -0.69769 174.978 1.57832 3.98498 180 7.01564e-015 179.002 176.129 9.39284 179.985 -1.03178e-006 3.14144e-006 0.0280337 -17.1532 68.105 19.5798 8.12969 25.233 -3.48483 -174.725 1.71053 -0.353449 4.54188e-006 -4.6773e-006 -0.891318 -0.919112 -11.0835 0.513006 3.40533e-006 -6.77322e-007 -0.0287039 16.6515 69.9601 -21.1329 -8.13359 25.2328 3.4865 
52.7202 96.075 7.16007 -0.403466 -2.69468 0.830686 0.215441 -0.362574 0.168145 0.430964 3.2782 0.296867 0.427976 4.92323 0.289912 0.843688 13.0965 -4.63114 -1.24637 2.81781 -4.55004 58.7292 -10.9471 -6.81879 113.748 20.2482 12.6985 -4.13833e-008 1.05047e-007 -3.38475e-006 9.75137 10.4521 -1.84858 -5.49491e-006 1.9926e-006 -3.00113 8.02899 -4.95145 0.697667 -56.5958 -7.57914 4.62797 -113.636 21.6276 -2.29801 -2.14211e-006 -1.98145e-006 5.51095e-006 -9.26856 6.93707 1.41851 2.32597e-006 6.81768e-006 3 -8.02904 -4.95145 -0.69769 174.977 1.57416 3.98124 180 7.01565e-015 179.003 176.137 9.41267 179.984 -1.03178e-006 3.14144e-006 0.0280337 -17.1471 68.1215 19.5947 8.12969 25.233 -3.48483 -174.728 1.71093 -0.353349 4.54188e-006 -4.6773e-006 -0.890854 -0.918154 -11.1105 0.514128 3.40533e-006 -6.77322e-007 -0.0287375 16.6618 69.9783 -21.1468 -8.13359 25.2328 3.4865 
52.7263 96.0762 7.16226 -0.401658 -2.70199 0.8233 0.213893 -0.362029 0.166824 0.427875 3.27929 0.297807 0.424883 4.92432 0.290904 0.861216 13.0857 -4.63947 -1.26192 2.80673 -4.55513 58.7523 -10.9408 -6.81465 113.755 20.2728 12.6494 -4.13833e-008 1.05047e-007 -3.38475e-006 9.76936 10.5078 -1.85682 -5.49491e-006 1.9926e-006 -3.00113 8.02899 -4.95145 0.697667 -56.6003 -7.57636 4.62632 -113.648 21.6504 -2.24287 -2.14211e-006 -1.98145e-006 5.51095e-006 -9.28429 6.96869 1.41996 2.32597e-006 6.81768e-006 3 -8.02904 -4.95145 -0.69769 174.977 1.56975 3.97756 180 7.01565e-015 179.004 176.146 9.43297 179.983 -1.03178e-006 3.14144e-006 0.0280337 -17.1407 68.1384 19.61 8.12969 25.233 -3.48483 -174.73 1.71137 -0.353206 4.54188e-006 -4.6773e-006 -0.890366 -0.917178 -11.138 0.515288 3.40533e-006 -6.77322e-007 -0.0287364 16.672 69.9969 -21.161 -8.13359 25.2328 3.4865 
52.7164 96.0742 7.16423 -0.399774 -2.70946 0.815974 0.212314 -0.361435 0.165452 0.424723 3.28047 0.298776 0.421727 4.9255 0.291925 0.879609 13.0747 -4.64802 -1.27817 2.7956 -4.56025 58.776 -10.9347 -6.8106 113.762 20.2978 12.6001 -4.13833e-008 1.05047e-007 -3.38475e-006 9.78749 10.5642 -1.86516 -5.49491e-006 1.9926e-006 -3.00113 8.02899 -4.95145 0.697667 -56.6047 -7.5733 4.62447 -113.661 21.6728 -2.1868 -2.14211e-006 -1.98145e-006 5.51095e-006 -9.30038 7.00177 1.4215 2.32597e-006 6.81768e-006 3 -8.02904 -4.95145 -0.69769 174.976 1.56518 3.97393 180 7.01565e-015 179.005 176.154 9.4536 179.982 -1.03178e-006 3.14144e-006 0.0280337 -17.1341 68.1556 19.6256 8.12969 25.233 -3.48483 -174.733 1.71184 -0.353033 4.54188e-006 -4.6773e-006 -0.889862 -0.916189 -11.166 0.516475 3.40533e-006 -6.77322e-007 -0.0287111 16.6823 70.0157 -21.1753 -8.13359 25.2328 3.4865 
52.7086 96.0729 7.16922 -0.397847 -2.71704 0.808681 0.210716 -0.360813 0.164051 0.421535 3.28171 0.299761 0.418535 4.92675 0.292963 0.898494 13.0636 -4.65667 -1.29483 2.78443 -4.56539 58.8002 -10.9286 -6.80661 113.768 20.323 12.5506 -4.13833e-008 1.05047e-007 -3.38475e-006 9.80571 10.6209 -1.87355 -5.49491e-006 1.9926e-006 -3.00113 8.02899 -4.95145 0.697667 -56.609 -7.57007 4.62252 -113.674 21.695 -2.13019 -2.14211e-006 -1.98145e-006 5.51095e-006 -9.31668 7.03569 1.4231 2.32597e-006 6.81768e-006 3 -8.02904 -4.95145 -0.69769 174.975 1.56051 3.97033 180 7.01565e-015 179.006 176.162 9.47441 179.98 -1.03178e-006 3.14144e-006 0.0280337 -17.1275 68.173 19.6414 8.12969 25.233 -3.48483 -174.735 1.71232 -0.352842 4.54188e-006 -4.6773e-006 -0.889348 -0.915192 -11.1943 0.517677 3.40533e-006 -6.77322e-007 -0.0286719 16.6925 70.0346 -21.1898 -8.13359 25.2328 3.4865 
52.7157 96.0734 7.18175 -0.395912 -2.72464 0.801396 0.209113 -0.360184 0.162643 0.418338 3.28297 0.300751 0.415333 4.928 0.294005 0.9175 13.0526 -4.66536 -1.31158 2.77326 -4.57054 58.8245 -10.9226 -6.80262 113.775 20.3482 12.5011 -4.13833e-008 1.05047e-007 -3.38475e-006 9.82397 10.6777 -1.88195 -5.49491e-006 1.9926e-006 -3.00113 8.02899 -4.95145 0.697667 -56.6133 -7.56679 4.62054 -113.686 21.7172 -2.07343 -2.14211e-006 -1.98145e-006 5.51095e-006 -9.33303 7.06981 1.42472 2.32597e-006 6.81768e-006 3 -8.02904 -4.95145 -0.69769 174.974 1.55582 3.96674 180 7.01566e-015 179.007 176.171 9.49527 179.979 -1.03178e-006 3.14144e-006 0.0280337 -17.1208 68.1904 19.6572 8.12969 25.233 -3.48483 -174.738 1.7128 -0.352647 4.54188e-006 -4.6773e-006 -0.888833 -0.914192 -11.2226 0.518883 3.40533e-006 -6.77322e-007 -0.0286292 16.7028 70.0535 -21.2042 -8.13359 25.2328 3.4865 
52.7156 96.0867 7.18438 -0.394 -2.73219 0.794094 0.20752 -0.359569 0.161249 0.415159 3.2842 0.301732 0.412149 4.92923 0.295039 0.936254 13.0415 -4.67399 -1.32814 2.76211 -4.57568 58.8486 -10.9165 -6.79861 113.781 20.3733 12.4517 -4.13833e-008 1.05047e-007 -3.38475e-006 9.84221 10.7343 -1.89033 -5.49491e-006 1.9926e-006 -3.00113 8.02899 -4.95145 0.697667 -56.6176 -7.5636 4.61861 -113.699 21.7394 -2.01692 -2.14211e-006 -1.98145e-006 5.51095e-006 -9.34929 7.10351 1.42631 2.32597e-006 6.81768e-006 3 -8.02904 -4.95145 -0.69769 174.974 1.55118 3.96314 180 7.01566e-015 179.008 176.179 9.51605 179.978 -1.03178e-006 3.14144e-006 0.0280337 -17.1143 68.2077 19.6731 8.12969 25.233 -3.48483 -174.74 1.71328 -0.35246 4.54188e-006 -4.6773e-006 -0.888321 -0.913194 -11.2508 0.520082 3.40533e-006 -6.77322e-007 -0.0285934 16.7131 70.0723 -21.2187 -8.13359 25.2328 3.4865 
52.7163 96.0825 7.17848 -0.392146 -2.73961 0.786751 0.205949 -0.358989 0.159892 0.412025 3.28536 0.302692 0.409011 4.93039 0.296052 0.954386 13.0306 -4.68247 -1.3442 2.75099 -4.58079 58.8722 -10.9103 -6.79454 113.788 20.3981 12.4024 -4.13833e-008 1.05047e-007 -3.38475e-006 9.86037 10.7905 -1.89867 -5.49491e-006 1.9926e-006 -3.00113 8.02899 -4.95145 0.697667 -56.622 -7.56062 4.61683 -113.712 21.7618 -1.96104 -2.14211e-006 -1.98145e-006 5.51095e-006 -9.36528 7.13617 1.42783 2.32597e-006 6.81768e-006 3 -8.02904 -4.95145 -0.69769 174.973 1.54666 3.9595 180 7.01566e-015 179.009 176.187 9.53659 179.977 -1.03178e-006 3.14144e-006 0.0280337 -17.1079 68.2248 19.6887 8.12969 25.233 -3.48483 -174.742 1.71374 -0.352295 4.54188e-006 -4.6773e-006 -0.887822 -0.912203 -11.2787 0.521262 3.40533e-006 -6.77322e-007 -0.028575 16.7235 70.091 -21.2331 -8.13359 25.2328 3.4865 
52.7075 96.0715 7.18586 -0.390383 -2.74684 0.77934 0.204415 -0.358466 0.158593 0.408964 3.2864 0.30362 0.405945 4.93144 0.297031 0.971523 13.0198 -4.69071 -1.35946 2.73993 -4.58587 58.895 -10.9039 -6.79036 113.796 20.4226 12.3533 -4.13833e-008 1.05047e-007 -3.38475e-006 9.8784 10.846 -1.90691 -5.49491e-006 1.9926e-006 -3.00113 8.02899 -4.95145 0.697667 -56.6266 -7.55797 4.61526 -113.725 21.7846 -1.90618 -2.14211e-006 -1.98145e-006 5.51095e-006 -9.38086 7.16717 1.42925 2.32597e-006 6.81768e-006 3 -8.02904 -4.95145 -0.69769 174.973 1.54232 3.9558 180 7.01566e-015 179.01 176.196 9.55675 179.976 -1.03178e-006 3.14144e-006 0.0280337 -17.1017 68.2416 19.704 8.12969 25.233 -3.48483 -174.745 1.71417 -0.352165 4.54188e-006 -4.6773e-006 -0.887341 -0.911225 -11.3061 0.522413 3.40533e-006 -6.77322e-007 -0.0285843 16.7339 70.1095 -21.2474 -8.13359 25.2328 3.4865 
52.709 96.0768 7.20195 -0.388744 -2.75379 0.771836 0.202932 -0.35802 0.157373 0.406001 3.28729 0.304503 0.402979 4.93233 0.297963 0.987293 13.0093 -4.69863 -1.37362 2.72894 -4.5909 58.9166 -10.8973 -6.78605 113.805 20.4465 12.3046 -4.13833e-008 1.05047e-007 -3.38475e-006 9.89625 10.9005 -1.91503 -5.49491e-006 1.9926e-006 -3.00113 8.02899 -4.95145 0.697667 -56.6314 -7.55578 4.614 -113.738 21.8077 -1.85275 -2.14211e-006 -1.98145e-006 5.51095e-006 -9.39587 7.19587 1.43051 2.32597e-006 6.81768e-006 3 -8.02904 -4.95145 -0.69769 174.972 1.53825 3.95202 180 7.01566e-015 179.011 176.204 9.57637 179.974 -1.03178e-006 3.14144e-006 0.0280337 -17.0959 68.2579 19.7189 8.12969 25.233 -3.48483 -174.747 1.71455 -0.352083 4.54188e-006 -4.6773e-006 -0.886887 -0.910265 -11.3327 0.523522 3.40533e-006 -6.77322e-007 -0.0286318 16.7444 70.1276 -21.2615 -8.13359 25.2328 3.4865 
52.7144 96.0738 7.20343 -0.387262 -2.7604 0.764215 0.201512 -0.357672 0.156255 0.403164 3.28799 0.305328 0.40014 4.93303 0.298836 1.00133 12.9991 -4.70614 -1.38638 2.71806 -4.59586 58.9368 -10.8905 -6.78157 113.814 20.4698 12.2562 -4.13833e-008 1.05047e-007 -3.38475e-006 9.91385 10.9539 -1.92299 -5.49491e-006 1.9926e-006 -3.00113 8.02899 -4.95145 0.697667 -56.6365 -7.55417 4.61312 -113.752 21.8315 -1.80113 -2.14211e-006 -1.98145e-006 5.51095e-006 -9.41014 7.22166 1.43158 2.32597e-006 6.81768e-006 3 -8.02904 -4.95145 -0.69769 174.972 1.53452 3.94815 180 7.01567e-015 179.012 176.212 9.59534 179.973 -1.03178e-006 3.14144e-006 0.0280337 -17.0905 68.2736 19.7332 8.12969 25.233 -3.48483 -174.749 1.71489 -0.352061 4.54188e-006 -4.6773e-006 -0.886465 -0.909328 -11.3585 0.524579 3.40533e-006 -6.77322e-007 -0.0287278 16.755 70.1452 -21.2753 -8.13359 25.2328 3.4865 
52.7089 96.0736 7.21584 -0.385971 -2.76658 0.756451 0.20017 -0.357443 0.155259 0.400481 3.28844 0.306082 0.397454 4.93348 0.299636 1.01325 12.9892 -4.71315 -1.39744 2.7073 -4.60075 58.9553 -10.8832 -6.77687 113.826 20.4922 12.2084 -4.13833e-008 1.05047e-007 -3.38475e-006 9.93116 11.0057 -1.93075 -5.49491e-006 1.9926e-006 -3.00113 8.02899 -4.95145 0.697667 -56.6419 -7.55326 4.61272 -113.766 21.8559 -1.75171 -2.14211e-006 -1.98145e-006 5.51095e-006 -9.42354 7.24391 1.43242 2.32597e-006 6.81768e-006 3 -8.02904 -4.95145 -0.69769 174.973 1.53119 3.94416 180 7.01567e-015 179.013 176.22 9.61351 179.972 -1.03178e-006 3.14144e-006 0.0280337 -17.0857 68.2886 19.7469 8.12969 25.233 -3.48483 -174.751 1.71516 -0.352113 4.54188e-006 -4.6773e-006 -0.886083 -0.908419 -11.3833 0.525572 3.40533e-006 -6.77322e-007 -0.0288828 16.7656 70.1623 -21.2888 -8.13359 25.2328 3.4865 
